<svg xmlns="http://www.w3.org/2000/svg" xmlns:xlink="http://www.w3.org/1999/xlink" width="950" zoomAndPan="magnify" viewBox="0 0 712.5 205.499994" height="274" preserveAspectRatio="xMidYMid meet" version="1.0"><defs><g/><clipPath id="e15dc177a1"><path d="M 443.921875 32.214844 L 670.441406 32.214844 L 670.441406 158.828125 L 443.921875 158.828125 Z M 443.921875 32.214844 " clip-rule="nonzero"/></clipPath><clipPath id="d845fdd2dd"><path d="M 462.625 32.214844 L 651.367188 32.214844 C 661.695312 32.214844 670.070312 40.585938 670.070312 50.917969 L 670.070312 140.125 C 670.070312 150.453125 661.695312 158.828125 651.367188 158.828125 L 462.625 158.828125 C 452.292969 158.828125 443.921875 150.453125 443.921875 140.125 L 443.921875 50.917969 C 443.921875 40.585938 452.292969 32.214844 462.625 32.214844 Z M 462.625 32.214844 " clip-rule="nonzero"/></clipPath><clipPath id="b8ac742caa"><path d="M 0.921875 0.214844 L 227 0.214844 L 227 126.828125 L 0.921875 126.828125 Z M 0.921875 0.214844 " clip-rule="nonzero"/></clipPath><clipPath id="3e1709a90b"><path d="M 19.625 0.214844 L 208.367188 0.214844 C 218.695312 0.214844 227.070312 8.585938 227.070312 18.917969 L 227.070312 108.125 C 227.070312 118.453125 218.695312 126.828125 208.367188 126.828125 L 19.625 126.828125 C 9.292969 126.828125 0.921875 118.453125 0.921875 108.125 L 0.921875 18.917969 C 0.921875 8.585938 9.292969 0.214844 19.625 0.214844 Z M 19.625 0.214844 " clip-rule="nonzero"/></clipPath><clipPath id="f19b782810"><rect x="0" width="228" y="0" height="127"/></clipPath><clipPath id="283804ba68"><path d="M 0.230469 95 L 1 95 L 1 96 L 0.230469 96 Z M 0.230469 95 " clip-rule="nonzero"/></clipPath><clipPath id="b5eb6a9415"><rect x="0" width="245" y="0" height="134"/></clipPath><clipPath id="a3f1fc6e65"><rect x="0" width="381" y="0" height="134"/></clipPath></defs><g clip-path="url(#e15dc177a1)"><g clip-path="url(#d845fdd2dd)"><g transform="matrix(1, 0, 0, 1, 443, 32)"><g clip-path="url(#f19b782810)"><g clip-path="url(#b8ac742caa)"><g clip-path="url(#3e1709a90b)"><path fill="#2563eb" d="M 0.921875 0.214844 L 226.945312 0.214844 L 226.945312 126.828125 L 0.921875 126.828125 Z M 0.921875 0.214844 " fill-opacity="1" fill-rule="nonzero"/></g></g></g></g></g></g><g transform="matrix(1, 0, 0, 1, 422, 35)"><g clip-path="url(#b5eb6a9415)"><g clip-path="url(#283804ba68)"><g fill="#0f172a" fill-opacity="1"><g transform="translate(0.790822, 95.347185)"><g/></g></g></g><g fill="#ffffff" fill-opacity="1"><g transform="translate(30.242763, 95.347185)"><g><path d="M 6.359375 -87.390625 L 38.25 -87.390625 C 47.144531 -87.390625 54.347656 -85.09375 59.859375 -80.5 C 65.367188 -75.914062 68.125 -69.242188 68.125 -60.484375 C 68.125 -51.734375 65.332031 -44.867188 59.75 -39.890625 C 54.164062 -34.910156 47 -32.421875 38.25 -32.421875 L 26.265625 -32.421875 L 26.265625 0 L 6.359375 0 Z M 26.265625 -48.3125 L 31.890625 -48.3125 C 36.335938 -48.3125 39.988281 -49.207031 42.84375 -51 C 45.707031 -52.800781 47.140625 -55.753906 47.140625 -59.859375 C 47.140625 -64.023438 45.707031 -67.003906 42.84375 -68.796875 C 39.988281 -70.597656 36.335938 -71.5 31.890625 -71.5 L 26.265625 -71.5 Z M 26.265625 -48.3125 "/></g></g></g><g fill="#ffffff" fill-opacity="1"><g transform="translate(101.322038, 95.347185)"><g><path d="M 10.0625 -6.71875 C 4.976562 -12.269531 2.4375 -19.070312 2.4375 -27.125 C 2.4375 -35.175781 4.976562 -41.988281 10.0625 -47.5625 C 15.144531 -53.144531 21.609375 -55.9375 29.453125 -55.9375 C 36.648438 -55.9375 42.582031 -53.675781 47.25 -49.15625 L 47.25 -54.34375 L 66 -54.34375 L 66 0 L 47.453125 0 L 47.453125 -6.140625 L 47.25 -6.140625 C 42.582031 -0.984375 36.648438 1.59375 29.453125 1.59375 C 21.609375 1.59375 15.144531 -1.175781 10.0625 -6.71875 Z M 26 -36.328125 C 23.570312 -33.929688 22.359375 -30.859375 22.359375 -27.109375 C 22.359375 -23.367188 23.519531 -20.316406 25.84375 -17.953125 C 28.175781 -15.585938 31.25 -14.40625 35.0625 -14.40625 C 38.738281 -14.40625 41.757812 -15.601562 44.125 -18 C 46.488281 -20.40625 47.671875 -23.445312 47.671875 -27.125 C 47.671875 -30.863281 46.453125 -33.929688 44.015625 -36.328125 C 41.578125 -38.734375 38.59375 -39.9375 35.0625 -39.9375 C 31.457031 -39.9375 28.4375 -38.734375 26 -36.328125 Z M 26 -36.328125 "/></g></g></g><g fill="#ffffff" fill-opacity="1"><g transform="translate(174.202119, 95.347185)"><g><path d="M 47.5625 -54.34375 L 69.171875 -54.34375 L 26.484375 27.546875 L 4.875 27.546875 L 23.625 -8.46875 L -2.125 -54.34375 L 19.5 -54.34375 L 34.640625 -26.484375 Z M 47.5625 -54.34375 "/></g></g></g></g></g><g transform="matrix(1, 0, 0, 1, 44, 35)"><g clip-path="url(#a3f1fc6e65)"><g fill="#0f172a" fill-opacity="1"><g transform="translate(1.656493, 95.347185)"><g><path d="M 85.390625 -48.9375 L 85.390625 -29.984375 C 83.128906 -19.597656 78.179688 -11.738281 70.546875 -6.40625 C 62.921875 -1.070312 54.410156 1.59375 45.015625 1.59375 C 33.222656 1.59375 23.175781 -2.816406 14.875 -11.640625 C 6.582031 -20.472656 2.4375 -31.140625 2.4375 -43.640625 C 2.4375 -56.359375 6.492188 -67.09375 14.609375 -75.84375 C 22.734375 -84.601562 32.867188 -88.984375 45.015625 -88.984375 C 59.210938 -88.984375 70.445312 -84.003906 78.71875 -74.046875 L 65.6875 -59.75 C 61.019531 -67.238281 54.519531 -70.984375 46.1875 -70.984375 C 40.039062 -70.984375 34.796875 -68.316406 30.453125 -62.984375 C 26.109375 -57.648438 23.9375 -51.203125 23.9375 -43.640625 C 23.9375 -36.222656 26.109375 -29.882812 30.453125 -24.625 C 34.796875 -19.363281 40.039062 -16.734375 46.1875 -16.734375 C 51.269531 -16.734375 55.703125 -18.269531 59.484375 -21.34375 C 63.265625 -24.414062 65.15625 -28.492188 65.15625 -33.578125 L 45.015625 -33.578125 L 45.015625 -48.9375 Z M 85.390625 -48.9375 "/></g></g></g><g fill="#0f172a" fill-opacity="1"><g transform="translate(90.002396, 95.347185)"><g><path d="M 61.34375 -24.578125 L 21.921875 -24.578125 C 21.921875 -20.765625 23.15625 -17.9375 25.625 -16.09375 C 28.101562 -14.257812 30.789062 -13.34375 33.6875 -13.34375 C 36.726562 -13.34375 39.128906 -13.75 40.890625 -14.5625 C 42.660156 -15.375 44.675781 -16.984375 46.9375 -19.390625 L 60.484375 -12.609375 C 54.835938 -3.140625 45.445312 1.59375 32.3125 1.59375 C 24.113281 1.59375 17.082031 -1.210938 11.21875 -6.828125 C 5.363281 -12.441406 2.4375 -19.203125 2.4375 -27.109375 C 2.4375 -35.023438 5.363281 -41.804688 11.21875 -47.453125 C 17.082031 -53.109375 24.113281 -55.9375 32.3125 -55.9375 C 40.925781 -55.9375 47.929688 -53.445312 53.328125 -48.46875 C 58.734375 -43.488281 61.4375 -36.375 61.4375 -27.125 C 61.4375 -25.851562 61.40625 -25.003906 61.34375 -24.578125 Z M 22.453125 -34.953125 L 43.109375 -34.953125 C 42.691406 -37.785156 41.582031 -39.957031 39.78125 -41.46875 C 37.976562 -42.988281 35.664062 -43.75 32.84375 -43.75 C 29.726562 -43.75 27.253906 -42.9375 25.421875 -41.3125 C 23.585938 -39.6875 22.597656 -37.566406 22.453125 -34.953125 Z M 22.453125 -34.953125 "/></g></g></g><g fill="#0f172a" fill-opacity="1"><g transform="translate(154.408061, 95.347185)"><g><path d="M 6.359375 0 L 6.359375 -54.34375 L 25.109375 -54.34375 L 25.109375 -48.625 L 25.3125 -48.625 C 30.1875 -53.5 35.378906 -55.9375 40.890625 -55.9375 C 43.578125 -55.9375 46.242188 -55.582031 48.890625 -54.875 C 51.535156 -54.164062 54.078125 -53.066406 56.515625 -51.578125 C 58.953125 -50.097656 60.929688 -48 62.453125 -45.28125 C 63.972656 -42.5625 64.734375 -39.40625 64.734375 -35.8125 L 64.734375 0 L 45.984375 0 L 45.984375 -30.71875 C 45.984375 -33.539062 45.082031 -36.007812 43.28125 -38.125 C 41.476562 -40.25 39.128906 -41.3125 36.234375 -41.3125 C 33.410156 -41.3125 30.847656 -40.21875 28.546875 -38.03125 C 26.253906 -35.84375 25.109375 -33.40625 25.109375 -30.71875 L 25.109375 0 Z M 6.359375 0 "/></g></g></g><g fill="#0f172a" fill-opacity="1"><g transform="translate(224.957672, 95.347185)"><g><path d="M 8.15625 -84.640625 C 10.34375 -86.828125 12.953125 -87.921875 15.984375 -87.921875 C 19.023438 -87.921875 21.640625 -86.828125 23.828125 -84.640625 C 26.023438 -82.453125 27.125 -79.835938 27.125 -76.796875 C 27.125 -73.765625 26.023438 -71.15625 23.828125 -68.96875 C 21.640625 -66.78125 19.023438 -65.6875 15.984375 -65.6875 C 12.953125 -65.6875 10.34375 -66.78125 8.15625 -68.96875 C 5.96875 -71.15625 4.875 -73.765625 4.875 -76.796875 C 4.875 -79.835938 5.96875 -82.453125 8.15625 -84.640625 Z M 6.359375 -54.34375 L 6.359375 0 L 25.109375 0 L 25.109375 -54.34375 Z M 6.359375 -54.34375 "/></g></g></g><g fill="#0f172a" fill-opacity="1"><g transform="translate(257.478346, 95.347185)"><g><path d="M 24.046875 -54.34375 L 24.046875 -28.5 C 24.046875 -23.132812 24.859375 -19.320312 26.484375 -17.0625 C 28.109375 -14.800781 30.863281 -13.671875 34.75 -13.671875 C 38.632812 -13.671875 41.390625 -14.800781 43.015625 -17.0625 C 44.640625 -19.320312 45.453125 -23.132812 45.453125 -28.5 L 45.453125 -54.34375 L 64.203125 -54.34375 L 64.203125 -23.9375 C 64.203125 -14.894531 61.851562 -8.378906 57.15625 -4.390625 C 52.457031 -0.398438 44.988281 1.59375 34.75 1.59375 C 24.507812 1.59375 17.039062 -0.398438 12.34375 -4.390625 C 7.644531 -8.378906 5.296875 -14.894531 5.296875 -23.9375 L 5.296875 -54.34375 Z M 24.046875 -54.34375 "/></g></g></g><g fill="#0f172a" fill-opacity="1"><g transform="translate(327.498295, 95.347185)"><g><path d="M 29.984375 -55.9375 C 33.085938 -55.9375 36.15625 -55.582031 39.1875 -54.875 C 42.226562 -54.164062 44.492188 -53.457031 45.984375 -52.75 L 48.203125 -51.703125 L 42.0625 -39.40625 C 37.820312 -41.664062 33.796875 -42.796875 29.984375 -42.796875 C 27.859375 -42.796875 26.351562 -42.566406 25.46875 -42.109375 C 24.59375 -41.648438 24.15625 -40.785156 24.15625 -39.515625 C 24.15625 -39.234375 24.1875 -38.953125 24.25 -38.671875 C 24.320312 -38.390625 24.460938 -38.125 24.671875 -37.875 C 24.890625 -37.625 25.085938 -37.410156 25.265625 -37.234375 C 25.441406 -37.054688 25.738281 -36.863281 26.15625 -36.65625 C 26.582031 -36.445312 26.921875 -36.285156 27.171875 -36.171875 C 27.421875 -36.066406 27.828125 -35.910156 28.390625 -35.703125 C 28.953125 -35.492188 29.375 -35.332031 29.65625 -35.21875 C 29.945312 -35.113281 30.425781 -34.953125 31.09375 -34.734375 C 31.757812 -34.523438 32.269531 -34.390625 32.625 -34.328125 C 34.8125 -33.691406 36.71875 -32.984375 38.34375 -32.203125 C 39.96875 -31.429688 41.679688 -30.375 43.484375 -29.03125 C 45.285156 -27.6875 46.679688 -25.988281 47.671875 -23.9375 C 48.660156 -21.894531 49.15625 -19.566406 49.15625 -16.953125 C 49.15625 -4.585938 40.570312 1.59375 23.40625 1.59375 C 19.519531 1.59375 15.828125 0.992188 12.328125 -0.203125 C 8.835938 -1.410156 6.316406 -2.613281 4.765625 -3.8125 L 2.4375 -5.71875 L 10.0625 -18.53125 C 10.625 -18.039062 11.363281 -17.457031 12.28125 -16.78125 C 13.207031 -16.113281 14.867188 -15.195312 17.265625 -14.03125 C 19.671875 -12.863281 21.753906 -12.28125 23.515625 -12.28125 C 27.398438 -12.28125 29.34375 -13.585938 29.34375 -16.203125 C 29.34375 -17.410156 28.847656 -18.347656 27.859375 -19.015625 C 26.867188 -19.679688 25.191406 -20.4375 22.828125 -21.28125 C 20.460938 -22.132812 18.609375 -22.914062 17.265625 -23.625 C 13.878906 -25.382812 11.195312 -27.378906 9.21875 -29.609375 C 7.238281 -31.835938 6.25 -34.785156 6.25 -38.453125 C 6.25 -43.960938 8.382812 -48.253906 12.65625 -51.328125 C 16.925781 -54.398438 22.703125 -55.9375 29.984375 -55.9375 Z M 29.984375 -55.9375 "/></g></g></g></g></g></svg>